<svg aria-hidden="true" xmlns="http://www.w3.org/2000/svg">
  <defs>
  /* Logo */
    <symbol id="icon-logo" viewBox="0 0 68 32">
      <path d="M40.514 15.811c0 .255-.008.511 0 .766.085 2.598-.705 4.939-1.975 7.146-.426.74-.832 1.493-1.199 2.266-.302.636-.723 1.081-1.376 1.342-.365.145-.703.396-1.009.655-1.408 1.193-3.006 2.048-4.715 2.65-1.135.4-2.304.751-3.537.735-.368-.004-.736.112-1.105.113s-.736-.121-1.101-.105c-1.59.07-3.063-.432-4.526-.959-1.596-.574-3.006-1.482-4.332-2.564-1.871-1.526-3.204-3.447-4.185-5.647-.528-1.186-.958-2.41-1.08-3.725-.02-.218-.091-.435-.153-.646-.445-1.476-.189-2.924.086-4.394.21-1.125.427-2.236.837-3.304 1.083-2.825 2.804-5.138 5.187-6.954 1.987-1.513 4.21-2.443 6.628-2.843 2.774-.459 5.482-.128 8.11.943 1.311.536 2.548 1.216 3.628 2.115 1.008.839 1.917 1.82 2.776 2.823.778.909 1.331 1.992 1.824 3.097.771 1.726 1.273 3.512 1.222 5.432-.011.355-.003.706-.003 1.058zm-1.065-3.497c-.077-.603-.125-1.302-.268-1.98-.409-1.951-1.511-3.475-2.979-4.719-.833-.707-1.742-1.322-2.638-1.947-.303-.212-.656-.406-1.01-.471-.91-.172-1.831-.333-2.754-.381-1.602-.084-3.04-.508-4.25-1.65-.89-.84-1.859-.922-2.784-.182-1.049.838-2.242 1.33-3.458 1.816-.891.357-1.75.806-2.607 1.25-.716.372-1.133.951-1.123 1.829.006.492-.214.904-.659 1.176a10.18 10.18 0 0 0-1.066.757c-.948.765-1.687 1.627-1.846 2.965-.126 1.058-.438 2.104-1.145 2.975-.236.3-.383.663-.422 1.047-.065.791-.038 1.591-.019 2.387.005.213.095.441.202.629.244.443.51.873.797 1.288.694.99 1.297 2.004 1.437 3.261.135 1.218.708 2.21 1.679 2.968 1.405 1.098 2.76 2.263 4.187 3.332.767.576 1.588 1.08 2.599 1.196s2.003.399 2.909.922c.19.105.398.171.613.193 1.279.141 2.463-.184 3.587-.798.352-.193.715-.367 1.08-.535.878-.403 1.851-.668 2.616-1.229.851-.626 1.76-.904 2.737-1.079.422-.076.767-.254 1.041-.576.328-.382.631-.786.973-1.155.353-.381.608-.786.67-1.328.095-.832.442-1.566.882-2.272.745-1.192 1.169-2.509 1.389-3.91.058-.367.091-.678-.087-1.002-.513-.933-.304-1.993-.466-2.986-.082-.537.107-1.124.186-1.794l-.002.001zm-6.174-9.322c-.217-.246-.285-.357-.383-.425-.177-.126-.37-.228-.559-.337C30.723 1.3 28.96.847 27.158.522 26.796.456 26.415.486 26.046.5c-.096.004-.211.099-.272.186-.028.039.035.177.088.242.401.49.924.86 1.513 1.069a9.866 9.866 0 0 0 3.167.61c.458.013.914.102 1.37.165.389.057.777.125 1.362.218zM19.596 29.805c-1.081-.906-2.028-1.716-2.992-2.504a111.381 111.381 0 0 0-2.429-1.911c-.092-.071-.236-.069-.437-.122.983 1.693 4.265 4.264 5.858 4.537zM12.315 8.663c.652-.511 1.255-1.048 1.917-1.493.928-.62 1.283-1.392 1.064-2.716-.659.552-1.128 1.218-1.636 1.823-.537.638-.935 1.397-1.382 2.111-.034.058.021.172.038.275zm21.979 19.316c-.608-.043-1.22.067-1.602.404-.724.638-1.585.959-2.461 1.279-.46.167-.894.413-1.327.648-.06.032-.071.205-.059.306.004.034.166.09.233.067.787-.275 1.599-.497 2.344-.864.914-.45 1.771-1.019 2.645-1.547.092-.053.14-.177.225-.293zm-23.227-8.853c-.175.528-.14.821-.03 1.133.305.864.49 1.777 1.039 2.532.204.28.245.906.621.771.331-.118-.056-.614-.079-.948-.087-1.277-.741-2.307-1.551-3.488zM16.964 3.22l.082.126c.454-.173.913-.336 1.363-.521.977-.402 1.951-.812 2.923-1.229a2.38 2.38 0 0 0 .542-.358c.047-.039.038-.171.024-.253-.008-.037-.1-.076-.153-.079a.908.908 0 0 0-.268.046c-1.32.385-2.565.954-3.757 1.645-.279.162-.505.413-.754.623zm23.188 13.717c.08-.095.142-.135.147-.18.129-1.392-.015-2.771-.201-4.146-.009-.069-.103-.168-.166-.176-.07-.009-.179.05-.222.115a.749.749 0 0 0-.127.345c-.07 1.134.003 2.273.217 3.389.042.225.224.423.352.654zm-29.404-3.84c.515-.202.592-.567.647-.896.135-.803.471-1.577.36-2.426-.539 1.014-1.016 2.041-1.007 3.322zm12.47 17.638c-1.155-.524-1.468-.579-2.496-.432.436.169.828.438 1.223.443.411.006.857.523 1.274-.011z"/>
      <path d="M25.6 20.313c-.79-.015-1.332-.354-1.734-1.009-.374-.611-.997-.928-1.567-1.304-.719-.474-1.303-1.009-1.469-1.971-.115-.652.019-1.218.277-1.733a2.9 2.9 0 0 1 1.009-1.086c.44-.277.805-.539 1.008-1.051.23-.589.81-.625 1.323-.731.483-.1.975-.164 1.451-.289.652-.171 1.243-.118 1.719.403.368.404.798.693 1.277.939.498.255.663.552.507 1.084-.106.361-.003.607.128.895.143.314.291.634.389.966.328 1.105-.049 2.035-1.06 2.527-.626.305-1.106.711-1.262 1.426a.66.66 0 0 1-.485.526c-.5.15-1.007.274-1.511.408zm3.315-4.632c.016-1.946-1.422-3.503-3.293-3.505-1.678 0-3.367 1.165-3.432 3.397-.053 1.787 1.398 3.451 3.29 3.457 2.304.012 3.39-1.629 3.435-3.35zm-6.743 1.861c0-.25.023-.377-.003-.492-.248-1.057-.409-2.104.153-3.123.041-.073-.053-.224-.084-.339-.11.037-.244.044-.327.114a2.426 2.426 0 0 0 .262 3.839zm3.452-5.854c.389.146.611.25.843.314.857.233 1.588.651 2.097 1.421.1.152.23.377.422.204.102-.092.135-.374.077-.515-.079-.187-.26-.421-.433-.458-.471-.101-.728-.451-1.035-.756-.516-.508-1.092-.668-1.971-.211zm-.053 7.661-.012-.073c-.247 0-.496-.022-.739.009-.125.016-.238.125-.357.191.108.098.202.252.326.284.664.172 1.333.209 1.988-.054.112-.045.237-.104.307-.196.062-.079.082-.218.07-.324-.005-.039-.16-.099-.236-.086-.45.072-.897.163-1.344.249l-.002.001zm3.396-1.996c.46-.088.666-.354.692-.763.02-.345.015-.691-.015-1.034-.007-.091-.131-.172-.201-.257-.102.099-.31.233-.291.293.187.597-.204 1.131-.186 1.761v.001zM33.175 20.048c-.026.014-.133.105-.248.118-.105.012-.258-.024-.324-.099a16.847 16.847 0 0 1-.937-1.174c-.077-.106-.108-.393-.064-.418.144-.081.425-.166.487-.096.37.418.695.878 1.03 1.33.033.045.023.123.056.339zM17.514 23.325c.171.014.509.025.838.082.082.015.192.179.192.277s-.095.268-.177.289c-.64.163-1.277.203-1.844-.236-.032-.031-.057-.068-.072-.11s-.022-.087-.018-.131c.012-.066.112-.157.178-.162.246-.021.492-.009.903-.009zM37.576 9.508l.242.136c-.069.126-.111.329-.211.365a9.71 9.71 0 0 1-1.415.414c-.138.028-.339-.112-.467-.227-.147-.133-.059-.422.126-.451.545-.086 1.095-.152 1.724-.237zM21.28 26.138c.256.123.47.157.575.288.287.365.549.749.785 1.15.115.191.01.398-.184.453-.106.03-.299-.059-.377-.157a12.645 12.645 0 0 1-.867-1.212c-.061-.1.034-.301.068-.521zM31.328 10.934c.016-.112 0-.239.051-.288.069-.064.217-.118.288-.083.097.048.16.178.227.281.186.285.369.572.546.864.079.131.185.27.192.411.008.13-.07.3-.166.389-.053.05-.273.018-.327-.052-.354-.462-.779-.894-.81-1.522zM32.43 6.029c-.077.471-.107.818-.197 1.151a.949.949 0 0 1-.307.455c-.102.084-.279.072-.422.103-.011-.137-.053-.28-.029-.41.075-.402.175-.798.264-1.197.007-.031.005-.064.014-.094.071-.24.223-.424.467-.324.123.05.181.271.209.317zM25.82 9.095c.215.028.494.042.76.108.091.022.225.19.209.262-.028.129-.133.299-.243.338a.904.904 0 0 1-.54.003c-.307-.1-.592-.134-.898-.002-.201.086-.389-.004-.443-.209-.072-.275.13-.408.357-.447.241-.041.491-.035.799-.053zM30.601 22.641c-.087.39-.153.732-.247 1.067-.018.066-.153.154-.21.139-.102-.026-.245-.108-.266-.194a1.314 1.314 0 0 1-.015-.565c.072-.343.143-.668.008-1.018-.064-.168-.046-.435.202-.434.134 0 .326.17.386.31.098.224.104.488.142.696zM26.829 22.541c-.05.092-.074.2-.14.246-.404.285-.808.572-1.233.821-.108.064-.299.024-.437-.018-.203-.062-.245-.335-.077-.446.465-.305.932-.608 1.411-.889.077-.045.23.003.329.054.067.035.096.146.147.232zM21.686 4.212c.066.039.189.074.205.136.16.605.315 1.213.442 1.826.035.17-.184.265-.332.163-.463-.32-.752-1.504-.482-2 .028-.049.096-.074.166-.125zM27.413 5.932c-.14-.095-.29-.144-.311-.227-.022-.09.05-.242.128-.314.34-.312.696-.605 1.066-.878.125-.09.383-.154.479-.083.226.163.107.393-.05.561-.212.227-.422.466-.665.649-.187.138-.427.197-.647.293zM18.6 9.131l-.339.328c-.097-.107-.24-.196-.281-.325a23.548 23.548 0 0 1-.428-1.523c-.018-.07.038-.214.096-.238.094-.039.248-.055.32 0 .141.106.301.249.347.409.121.416.184.852.285 1.349zM14.89 17.535c-.311.584-.547 1.183-1.126 1.501-.097.053-.313-.015-.417-.1-.177-.144 0-.264.086-.387.272-.384.523-.783.812-1.152.074-.095.263-.141.392-.128.087.008.159.161.253.267zM18.402 17.584c.162.096.28.125.302.188.036.104.055.267 0 .339-.089.115-.241.181-.372.258-.34.2-.675.411-1.029.581a.459.459 0 0 1-.399-.034c-.197-.144-.128-.375.031-.477.485-.312.996-.584 1.467-.855zM35.978 14.938c-.125.289-.3.724-.509 1.143-.032.065-.234.1-.319.061-.079-.037-.166-.2-.15-.289a11.3 11.3 0 0 1 .317-1.382c.043-.137.237-.262.386-.308.055-.017.2.196.268.327.039.074.007.187.007.448zM14.793 11.467c.55.506.485 1.193.546 1.828.011.118-.132.286-.246.372-.06.045-.303-.027-.309-.068a37.791 37.791 0 0 1-.207-1.93c-.004-.055.125-.122.215-.201zM27.648 27.137c.092.025.183.055.272.091.33.157.663.31.985.483.153.082.307.184.417.314.127.151-.018.442-.195.402-.6-.133-1.185-.318-1.634-.778-.066-.068-.065-.238-.043-.351.013-.064.128-.108.199-.161zM20.352 11.652c.032.102.141.26.102.359a23.74 23.74 0 0 1-.672 1.546c-.029.063-.153.118-.227.108-.064-.008-.153-.101-.17-.171-.126-.567.271-1.582.713-1.837.046-.026.118-.004.254-.004zM37.496 20.26c-.069-.045-.213-.099-.288-.205-.03-.042.067-.234.15-.295.369-.275.745-.538 1.138-.773.106-.063.326-.068.404.003.072.066.082.314.018.405-.329.47-.744.828-1.421.864zM35.218 24.306c-.284-.03-.408-.033-.527-.061-.05-.011-.125-.072-.126-.112a.425.425 0 0 1 .065-.253.471.471 0 0 1 .23-.147c.439-.135.877-.271 1.323-.38.097-.024.3.042.313.098.029.134-.006.297-.057.432-.027.071-.136.131-.219.157-.381.107-.764.203-1.002.266zM22.012 21.059c-.031.137-.082.441-.181.727-.025.071-.216.14-.304.114s-.192-.175-.189-.268c.009-.53.035-1.061.087-1.588.011-.115.153-.217.235-.324.098.106.257.2.282.323.056.273.044.561.069 1.017zM42.564 4.474c0-1.123.265-1.974.795-2.554.536-.586 1.222-.879 2.059-.879s1.502.253 1.995.759c.5.506.749 1.314.749 2.425s-.265 1.95-.795 2.517c-.53.568-1.237.851-2.122.851-.764 0-1.391-.225-1.878-.676-.253-.234-.452-.558-.596-.972-.138-.42-.208-.91-.208-1.471zm2.827-3.341c-.608 0-1.108.278-1.499.833-.385.555-.578 1.37-.578 2.443s.184 1.857.551 2.351c.367.494.855.74 1.463.74.614 0 1.114-.278 1.499-.833.391-.561.587-1.373.587-2.434 0-1.067-.187-1.851-.56-2.35-.367-.5-.855-.75-1.463-.75zM49.724 7.556h-.749V1.078h.749v2.98h2.935v-2.98h.749v6.478h-.749V4.151h-2.935v3.405zM57.261 7.556h-.117l.786-6.478h.298l1.896 5.987 1.887-5.987h.298l.786 6.478h-.749l-.623-5.182-1.634 5.182h-.569l-1.652-5.117-.605 5.117zM68.095 1.078a.623.623 0 0 1 .172.453c0 .154-.033.312-.099.472l-1.616 3.359v2.193h-.749v-1.99l-1.806-4.488h.767l1.725 4.173 1.571-3.248c.066-.154.099-.315.099-.481s-.045-.296-.135-.389l.072-.056zM1.273 9.258a29.08 29.08 0 0 1 1.368-.033c.456 0 .933.049 1.432.147a5.034 5.034 0 0 1 1.496.554c.499.261.918.603 1.257 1.027.35.413.631.962.843 1.647s.318 1.517.318 2.495c0 .978-.159 1.859-.477 2.642-.308.772-.732 1.364-1.273 1.777-1.05.804-2.318 1.207-3.803 1.207-.52 0-1.066-.022-1.639-.065h-.796V9.257h1.273zm.048 11.268c.223.022.504.033.843.033s.594-.005.764-.016c.17-.011.403-.054.7-.13.297-.087.573-.201.827-.342s.52-.348.796-.62c.286-.283.53-.614.732-.995.456-.891.684-2.055.684-3.49 0-1.022-.122-1.902-.366-2.642-.244-.75-.525-1.305-.843-1.663a3.293 3.293 0 0 0-1.13-.848c-.446-.217-.801-.342-1.066-.375s-.573-.049-.923-.049-.69.016-1.018.049v11.089zM42.823 20.656h-.207V9.241h.541l6.619 10.551V9.241h.207v11.415h-1.162l-5.999-9.458v9.458zM59.781 9.241h.207v6.523c0 1.707-.329 2.962-.987 3.767-.658.794-1.517 1.19-2.578 1.19-.668 0-1.236-.06-1.702-.179a3.626 3.626 0 0 1-1.321-.701c-.849-.674-1.273-2.033-1.273-4.077V9.241h1.321v6.507c0 1.979.292 3.3.875 3.963.297.326.605.549.923.669.329.12.721.179 1.177.179 1.018 0 1.83-.381 2.434-1.142.615-.772.923-1.995.923-3.669V9.241zM65.415 20.656h-1.321V9.404h-2.753v-.163h6.842v.163h-2.769v11.252z"/>
    </symbol>

  /* Menu */
    <symbol id="icon-menu" viewBox="0 0 60 32">
      <path d="M2 0h56a2 2 0 1 1 0 4H2a2 2 0 1 1 0-4zM2 14h56a2 2 0 1 1 0 4H2a2 2 0 1 1 0-4zM2 28h56a2 2 0 1 1 0 4H2a2 2 0 1 1 0-4z"/>
    </symbol>
    <symbol id="icon-close" viewBox="0 0 32 32">
      <path d="M30.355 32a1.646 1.646 0 0 0 1.163-2.811L2.811.482A1.646 1.646 0 1 0 .483 2.811L29.19 31.517a1.65 1.65 0 0 0 1.165.483z"/>
      <path d="M1.645 32c.422 0 .843-.16 1.163-.483L31.517 2.811A1.647 1.647 0 0 0 29.188.482L.481 29.189A1.646 1.646 0 0 0 1.644 32z"/>
    </symbol>

  /* Donuts*/
    <symbol id="icon-Frame-1" viewBox="0 0 32 32">
      <path d="M23.15 9.631a.456.456 0 0 1-.457-.457 6.696 6.696 0 0 0-6.692-6.558 6.694 6.694 0 0 0-6.692 6.558.455.455 0 0 1-.457.457.455.455 0 0 1-.457-.457 7.608 7.608 0 0 1 15.212 0 .455.455 0 0 1-.457.457z"/>
      <path d="M24.484 19.976a.457.457 0 1 1-.005-.915 6.645 6.645 0 0 0 6.607-6.56 6.64 6.64 0 0 0-6.688-6.574 6.792 6.792 0 0 0-1.992.295.456.456 0 0 1-.268-.874 7.723 7.723 0 0 1 2.26-.336A7.552 7.552 0 0 1 32 12.5a7.561 7.561 0 0 1-7.51 7.474h-.006zM7.515 19.976H7.51A7.565 7.565 0 0 1 0 12.502a7.552 7.552 0 0 1 7.602-7.488 7.695 7.695 0 0 1 2.26.336.47.47 0 0 1 .275.221.454.454 0 0 1-.191.622.46.46 0 0 1-.352.03 6.792 6.792 0 0 0-1.992-.295 6.64 6.64 0 0 0-6.688 6.574 6.646 6.646 0 0 0 6.607 6.56.455.455 0 0 1 .319.783.465.465 0 0 1-.324.132z"/>
      <path d="M24.485 31.348H7.516a.455.455 0 0 1-.457-.457V19.519a.456.456 0 0 1 .914 0v10.915h16.055V19.519a.456.456 0 0 1 .914 0v11.372a.456.456 0 0 1-.457.457z"/>
      <path d="M27.666 26.918H10.697a.455.455 0 0 1-.457-.457.455.455 0 0 1 .457-.457h16.969a.456.456 0 0 1 0 .914z"/>
    </symbol>
    <symbol id="icon-Frame-2" viewBox="0 0 32 32">
      <path d="M10.936 1.684c-3.395 0-6.161 2.765-6.161 6.161s2.765 6.161 6.161 6.161c3.395 0 6.161-2.765 6.161-6.161s-2.765-6.161-6.161-6.161zm0 11.288c-2.835 0-5.134-2.305-5.134-5.134s2.305-5.134 5.134-5.134c2.835 0 5.134 2.305 5.134 5.134s-2.305 5.134-5.134 5.134zM23.553 4.242c-2.551 0-4.623 2.072-4.623 4.624s2.072 4.624 4.623 4.624 4.624-2.072 4.624-4.624-2.072-4.624-4.624-4.624zm0 8.226c-1.984 0-3.597-1.613-3.597-3.597s1.613-3.597 3.597-3.597 3.597 1.613 3.597 3.597-1.612 3.597-3.597 3.597z"/>
      <path d="M31.824 20.267c-.466-2.809-2.211-5.178-5.184-6.419 0 0-1.317.995-3.086.964-1.934-.038-3.087-.964-3.087-.964s-1.436.535-2.595 1.65c-1.071-.951-2.879-1.726-2.879-1.726s-1.657 1.26-4.063 1.241c-2.526-.019-4.05-1.241-4.05-1.241S1.419 15.649.266 22.017c0 0-1.235 3.376 1.625 8.422h18.097s1.285-2.236 1.512-3.597h9.001c2.211-3.351 1.323-6.576 1.323-6.576zm-12.473 9.146H2.526c-2.198-4.176-1.247-7.225-1.247-7.225a9.758 9.758 0 0 1 5.524-7.257c2.52 1.48 5.751 1.48 8.271 0a9.758 9.758 0 0 1 5.524 7.257c-.006 0 .907 3.754-1.247 7.225zm10.551-3.597h-8.195c.315-1.814-.101-3.798-.101-3.798a10.768 10.768 0 0 0-2.98-5.827 7.34 7.34 0 0 1 1.757-1.184 6.44 6.44 0 0 0 6.331 0 7.34 7.34 0 0 1 4.094 5.43s.75 2.545-.907 5.379z"/>
    </symbol>
    <symbol id="icon-Frame-3" viewBox="0 0 32 32">
      <path d="M16 0C7.178 0 0 7.178 0 16s7.178 16 16 16 16-7.178 16-16S24.822 0 16 0zm0 30.933C7.766 30.933 1.067 24.234 1.067 16S7.766 1.067 16 1.067 30.933 7.766 30.933 16 24.234 30.933 16 30.933z"/>
      <path d="M16.533 13.878V8.469a.533.533 0 1 0-1.066 0v5.409a2.13 2.13 0 0 0-1.524 1.524h-3.809a.533.533 0 1 0 0 1.066h3.809a2.132 2.132 0 0 0 2.058 1.6 2.135 2.135 0 0 0 2.133-2.133c0-.991-.683-1.819-1.6-2.058zM16 17.002a1.068 1.068 0 0 1 0-2.134 1.068 1.068 0 0 1 0 2.134zM16 5.269a.533.533 0 0 0 .533-.533v-.533a.533.533 0 1 0-1.066 0v.533c0 .295.239.533.533.533zM16 26.602a.533.533 0 0 0-.533.533v.533a.533.533 0 1 0 1.066 0v-.533a.533.533 0 0 0-.533-.533zM27.733 15.402H27.2a.533.533 0 1 0 0 1.066h.533a.533.533 0 1 0 0-1.066zM4.8 15.402h-.533a.533.533 0 1 0 0 1.066H4.8a.533.533 0 1 0 0-1.066zM23.919 7.261l-.377.377a.532.532 0 0 0 .377.91.532.532 0 0 0 .377-.156l.377-.377a.534.534 0 0 0-.754-.754zM7.703 23.478l-.377.377a.532.532 0 0 0 .377.91.532.532 0 0 0 .377-.156l.377-.377a.534.534 0 0 0-.754-.754zM24.297 23.478a.533.533 0 1 0-.754.754l.377.377a.532.532 0 1 0 .754-.754l-.377-.377zM8.08 7.261a.533.533 0 1 0-.754.754l.377.377a.532.532 0 1 0 .754-.754l-.377-.377z"/>
    </symbol>
    <symbol id="icon-Frame-4" viewBox="0 0 32 32">
      <path d="M24.62 16.411c0-5.844-6.16-9.674-12.31-9.674C6.135 6.737 0 10.585 0 16.411c0 2.204.965 4.359 2.718 6.069.067.066.093.165.067.259-.551 2.017-1.855 3.839-2.39 4.529a.69.69 0 0 0-.071.741.69.69 0 0 0 .621.382h.018c2.618-.065 5.653-.804 7.529-2.649a.27.27 0 0 1 .252-.068c1.153.273 2.353.412 3.566.412 6.173 0 12.31-3.847 12.31-9.674zm-15.66 8.35a1.199 1.199 0 0 0-1.125.312c-1.876 1.845-4.939 2.264-6.39 2.357.662-.914 1.74-2.594 2.244-4.444a1.202 1.202 0 0 0-.317-1.177C1.779 20.255.937 18.389.937 16.411c0-4.817 5.102-8.737 11.373-8.737s11.373 3.919 11.373 8.737-5.102 8.737-11.373 8.737c-1.141 0-2.268-.13-3.35-.387z"/>
      <path d="M27.636 24.2c2.733-1.381 4.365-3.735 4.365-6.297 0-3.621-3.273-6.714-7.782-7.356a.47.47 0 0 0-.132.928c4.043.575 6.977 3.279 6.977 6.428 0 2.201-1.439 4.242-3.85 5.46a1.16 1.16 0 0 0-.611 1.274c.229 1.074.715 2.069 1.104 2.743-2.768-.461-3.817-1.789-4.149-2.364a1.157 1.157 0 0 0-1.001-.575H22.519c-.52 0-1.04-.036-1.547-.107a.469.469 0 0 0-.13.928c.55.077 1.114.116 1.677.116h.039c.078 0 .15.041.188.106 1.27 2.2 4.188 2.762 5.384 2.901.264.031.516-.09.657-.316s.139-.504-.005-.728c-.36-.561-1.003-1.684-1.262-2.901a.22.22 0 0 1 .117-.242zM5.016 14.734c-.896 0-1.625.729-1.625 1.625s.729 1.625 1.625 1.625 1.625-.729 1.625-1.625-.729-1.625-1.625-1.625zm0 2.312a.688.688 0 1 1 .001-1.375.688.688 0 0 1-.001 1.375zM9.65 14.734c-.896 0-1.625.729-1.625 1.625s.729 1.625 1.625 1.625 1.625-.729 1.625-1.625-.729-1.625-1.625-1.625zm0 2.312a.688.688 0 1 1 .001-1.375.688.688 0 0 1-.001 1.375zM14.285 14.734c-.896 0-1.625.729-1.625 1.625s.729 1.625 1.625 1.625 1.625-.729 1.625-1.625-.729-1.625-1.625-1.625zm0 2.312a.688.688 0 1 1 .001-1.375.688.688 0 0 1-.001 1.375zM18.919 14.734c-.896 0-1.625.729-1.625 1.625s.729 1.625 1.625 1.625 1.625-.729 1.625-1.625-.729-1.625-1.625-1.625zm0 2.312a.688.688 0 1 1 .001-1.375.688.688 0 0 1-.001 1.375z"/>
    </symbol>

  /* Socials */
    <symbol id="icon-twitter" viewBox="0 0 32 32">
      <path d="M32 5.441c-1.19.583-2.458.97-3.78 1.158 1.36-.908 2.398-2.334 2.886-4.053a12.307 12.307 0 0 1-4.16 1.775C25.742 2.888 24.026 2 22.154 2c-3.632 0-6.556 3.295-6.556 7.335 0 .581.044 1.14.152 1.672-5.454-.297-10.28-3.219-13.522-7.671a8.059 8.059 0 0 0-.898 3.707c0 2.54 1.17 4.791 2.914 6.095-1.054-.022-2.088-.364-2.964-.903v.08c0 3.564 2.274 6.524 5.256 7.206a5.905 5.905 0 0 1-1.72.241c-.42 0-.844-.027-1.242-.125.85 2.904 3.262 5.039 6.13 5.109-2.232 1.952-5.066 3.128-8.134 3.128-.538 0-1.054-.027-1.57-.101 2.906 2.095 6.35 3.291 10.064 3.291 12.072 0 18.672-11.178 18.672-20.868 0-.324-.01-.637-.024-.948C30.014 8.215 31.108 6.925 32 5.441z"/>
    </symbol>
    <symbol id="icon-instagram" viewBox="0 0 32 32">
      <path d="M16.316 32h-.319c-2.508.006-4.826-.058-7.08-.195-2.066-.126-3.953-.84-5.455-2.065-1.45-1.182-2.44-2.781-2.942-4.75-.438-1.715-.461-3.398-.483-5.026a343.853 343.853 0 0 1-.036-3.96c.003-1.414.02-2.798.036-3.966.022-1.628.045-3.311.483-5.026.503-1.97 1.493-3.568 2.942-4.75C4.965 1.037 6.851.323 8.918.197 11.172.06 13.49-.004 16.004.002c2.509-.005 4.826.058 7.08.195 2.066.126 3.953.84 5.455 2.065 1.45 1.182 2.44 2.781 2.943 4.75.437 1.715.461 3.398.483 5.026.016 1.168.033 2.553.036 3.96v.006c-.003 1.408-.02 2.792-.036 3.96-.022 1.628-.045 3.311-.483 5.026-.503 1.97-1.493 3.568-2.943 4.75-1.502 1.225-3.389 1.939-5.455 2.065-2.159.131-4.376.195-6.768.195zm-.319-2.5c2.468.006 4.733-.056 6.934-.19 1.563-.095 2.917-.602 4.027-1.507 1.026-.837 1.732-1.991 2.1-3.431.364-1.428.385-2.96.406-4.442.016-1.16.032-2.535.036-3.929-.004-1.394-.02-2.769-.036-3.929-.02-1.482-.041-3.015-.406-4.443-.367-1.44-1.074-2.594-2.1-3.431-1.11-.905-2.465-1.412-4.027-1.507a108.807 108.807 0 0 0-6.928-.19c-2.467-.006-4.733.056-6.934.19-1.563.095-2.917.602-4.027 1.507-1.026.837-1.732 1.991-2.1 3.431-.364 1.428-.385 2.96-.406 4.443a363.726 363.726 0 0 0-.036 3.932c.003 1.389.02 2.765.036 3.926.02 1.482.041 3.015.406 4.442.367 1.44 1.074 2.594 2.1 3.431 1.11.905 2.465 1.412 4.027 1.507 2.201.134 4.467.197 6.928.191zm-.06-5.688c-4.308 0-7.813-3.505-7.813-7.812s3.505-7.813 7.813-7.813S23.75 11.692 23.75 16s-3.505 7.812-7.813 7.812zm0-13.125c-2.929 0-5.313 2.383-5.313 5.313s2.383 5.312 5.313 5.312c2.93 0 5.313-2.383 5.313-5.312s-2.383-5.313-5.313-5.313zm8.688-5a1.875 1.875 0 1 0 0 3.75 1.875 1.875 0 0 0 0-3.75z"/>
    </symbol>
    <symbol id="icon-facebook" viewBox="0 0 32 32">
      <path d="M22.512.007 18.895 0c-4.064 0-6.69 3.091-6.69 7.875v3.631H8.568c-.314 0-.569.292-.569.653v5.261c0 .361.255.652.569.652h3.637v13.275c0 .36.254.652.569.652h4.745c.314 0 .569-.292.569-.652V18.072h4.252c.314 0 .569-.292.569-.652l.002-5.261c0-.173-.06-.339-.167-.461s-.252-.191-.402-.191h-4.254V8.429c0-1.479.307-2.23 1.987-2.23l2.437-.001c.314 0 .568-.292.568-.652V.661c0-.36-.254-.652-.568-.652z"/>
    </symbol>

  /* Star */
    <symbol id="icon-Star-1" viewBox="0 0 34 32">
      <path d="M15.24 1.561c.504-1.552 2.699-1.552 3.204 0l2.558 7.872a1.684 1.684 0 0 0 1.602 1.164h8.277c1.632 0 2.31 2.088.99 3.047l-6.696 4.865a1.685 1.685 0 0 0-.612 1.883l2.558 7.872c.504 1.552-1.272 2.842-2.592 1.883l-6.696-4.865a1.684 1.684 0 0 0-1.98 0l-6.696 4.865c-1.32.959-3.096-.331-2.592-1.883l2.558-7.872a1.685 1.685 0 0 0-.612-1.883l-6.696-4.865c-1.32-.959-.642-3.047.99-3.047h8.277c.73 0 1.376-.47 1.602-1.164l2.558-7.872z"/>
    </symbol>
    <symbol id="icon-Star-2" viewBox="0 0 34 32">
      <path stroke-width="1.684" d="M16.041 1.822c.252-.776 1.35-.776 1.602 0l2.558 7.872a2.526 2.526 0 0 0 2.403 1.746h8.277c.816 0 1.155 1.044.495 1.523l-6.696 4.865a2.528 2.528 0 0 0-.918 2.825l2.558 7.872c.252.776-.636 1.421-1.296.941l-6.696-4.865a2.528 2.528 0 0 0-2.97 0l-6.696 4.865c-.66.48-1.548-.166-1.296-.941l2.558-7.872a2.527 2.527 0 0 0-.918-2.825L2.31 12.963c-.66-.479-.321-1.523.495-1.523h8.277a2.528 2.528 0 0 0 2.403-1.746l2.558-7.872z"/>
    </symbol>

  /* Contact */
    <symbol id="icon-telephone" viewBox="0 0 32 32">
      <path d="M29.43 20.474c-1.959 0-3.882-.299-5.705-.886-.893-.297-1.991-.025-2.536.521l-3.598 2.648c-4.172-2.171-6.743-4.676-8.939-8.713l2.636-3.416a2.475 2.475 0 0 0 .636-2.554 17.325 17.325 0 0 1-.912-5.571C11.012 1.123 9.86 0 8.445 0H2.569C1.153 0 .001 1.123.001 2.503c0 15.819 13.202 28.689 29.43 28.689 1.416 0 2.568-1.123 2.568-2.503v-5.712c0-1.38-1.152-2.503-2.568-2.503z"/>
    </symbol>
    <symbol id="icon-location" viewBox="0 0 23 32">
      <path d="M11.733 0c6.47 0 11.733 5.131 11.733 11.438a11.15 11.15 0 0 1-2.341 6.857l-8.669 11.382c-.022.028-.055.038-.079.063a.887.887 0 0 1-1.367-.063c-2.496-3.247-7.072-9.312-8.832-11.599l-.001-.003-.011-.014a11.162 11.162 0 0 1-2.167-6.623C-.001 5.131 5.263 0 11.732 0zm0 17.609c3.483 0 6.33-2.775 6.33-6.171s-2.847-6.171-6.33-6.171-6.33 2.775-6.33 6.171 2.847 6.171 6.33 6.171z"/>
    </symbol>
  </defs>
</svg>
